<svg xmlns="http://www.w3.org/2000/svg" height="800" width="1200" version="1.0" viewBox="-26.75097 -7.893075 231.84174 47.35845"><path d="M9.0185 15.4346h6.5235l-3.1738-9.2334h-.0733zM9.5557 0h5.664l9.4092 25.166h-5.7422l-1.8994-5.6055h-9.419L5.6007 25.166H0M27.8418 6.9434h4.7217V9.414h.0732c1.2989-1.8701 3.1983-2.9639 5.5615-2.9639 2.295 0 4.3311.8447 5.3223 3.0273 1.0498-1.5771 2.9639-3.0273 5.503-3.0273 3.872 0 6.6552 1.8018 6.6552 6.5186V25.166h-5.0049V14.8437c0-2.4365-.2002-4.4433-3.0713-4.4433-2.8125 0-3.335 2.3242-3.335 4.6143V25.166h-5.0097V14.9463c0-2.1094.1465-4.546-3.0273-4.546-.9912 0-3.3887.6349-3.3887 4.1944V25.166h-5m46.7285-9.0527c0-2.8906-1.1523-5.8887-4.3652-5.8887-3.2813 0-4.3408 2.92-4.3408 5.8887 0 2.959 1.1279 5.7715 4.37 5.7715 3.2716 0 4.336-2.8125 4.336-5.7715zm-13.5351-9.17h4.7656v2.3292h.0635c1.1962-1.9434 3.1787-2.8223 5.4248-2.8223 5.7128 0 8.2861 4.624 8.2861 9.7998 0 4.8633-2.6758 9.4092-8.003 9.4092-2.1777 0-4.2578-.9522-5.4638-2.749h-.0732v8.662h-5M83.9795 0h5v9.4775h.1123c1.2744-2.036 3.457-3.0273 5.3223-3.0273 5.3222 0 6.6552 2.998 6.6552 7.5098v11.206h-4.995V14.8828c0-2.998-.8887-4.4824-3.213-4.4824-2.71 0-3.8818 1.5137-3.8818 5.2197v9.546h-5m34.5752-11.0645c-.4492-2.5342-1.5479-3.877-3.9844-3.877-3.1738 0-4.082 2.4658-4.1553 3.877zm-8.1397 3.1738c.1465 3.164 1.6846 4.6094 4.4776 4.6094 2.002 0 3.6328-1.2305 3.9502-2.3584h4.4091c-1.411 4.3017-4.4091 6.1328-8.54 6.1328-5.7373 0-9.3066-3.9502-9.3066-9.585 0-5.4687 3.7695-9.624 9.3066-9.624 6.206 0 9.2041 5.2197 8.8623 10.8252m4.3652-10.332h4.756v2.5341h.1024c1.2696-2.036 3.4473-3.0273 5.5762-3.0273 5.3125 0 6.6602 2.998 6.6602 7.5098v11.206h-5.0098V14.873c0-2.9882-.8838-4.4726-3.1982-4.4726-2.7295 0-3.8819 1.5137-3.8819 5.2197v9.546h-5.0049m31.1573-3.2813c3.413 0 4.4433-2.92 4.4433-5.8106 0-2.9297-1.0302-5.8496-4.4433-5.8496-3.3887 0-4.4092 2.92-4.4092 5.8496 0 2.8907 1.0205 5.8106 4.4092 5.8106zm0-15.4346c5.7422 0 9.4433 3.8086 9.4433 9.624 0 5.7813-3.7011 9.585-9.4433 9.585-5.7178 0-9.419-3.8037-9.419-9.585 0-5.8154 3.7012-9.624 9.419-9.624m14.2285 18.7158h5.0146V0h-5.0146" fill="#25509d"/></svg>