<svg width="198" height="48" viewBox="0 0 198 48" fill="none" xmlns="http://www.w3.org/2000/svg">
<path d="M195.77 32.4246C193.926 32.4246 193.31 31.8109 193.31 29.965V20.8223H197.998V16.3669H193.31V9.37464H188.087V31.0039C188.087 34.616 190.392 36.8824 194.004 36.8824C195.695 36.8824 197.268 36.8437 198 36.805V32.4246H195.772H195.77ZM178.214 16.3669H173.143V36.8824H178.367V26.4326C178.367 22.6682 180.133 20.8247 183.706 20.8247H185.857V16.1374C185.472 16.0601 184.897 15.9828 184.436 15.9828C181.747 15.9828 179.596 17.0966 178.367 19.363H178.212V16.3669H178.214ZM154.858 24.5891C155.087 21.9772 157.085 20.2086 159.852 20.2086C162.77 20.2086 164.769 21.9748 165 24.5891H154.858ZM159.852 37.3438C164.923 37.3438 168.381 35.1935 169.801 31.1199L164.807 30.3129C163.962 32.3497 162.079 33.0407 159.852 33.0407C157.124 33.0407 155.087 31.2358 154.858 28.6602H170.147C170.224 28.1988 170.301 27.5077 170.301 26.6234C170.301 20.3222 166.23 15.9055 159.852 15.9055C153.473 15.9055 149.557 20.3246 149.557 26.6234C149.557 32.9223 153.782 37.3414 159.852 37.3414V37.3438ZM136.224 33.1156C134.226 33.1156 133.228 32.2313 133.228 30.8493C133.228 29.5421 134.535 28.6602 136.531 28.4283L141.564 27.8146V29.1217C141.564 31.6563 138.684 33.118 136.224 33.118V33.1156ZM141.564 36.8824H146.788V24.5117C146.788 18.8266 143.101 15.9828 137.645 15.9828C132.919 15.9828 129.539 18.4786 128.541 22.0135L133.651 22.7818C134.113 21.1291 135.649 20.2859 137.647 20.2859C140.107 20.2859 141.412 21.5157 141.412 22.8978C141.412 23.5888 141.182 23.9729 140.066 24.1276L136.531 24.5891C130.575 25.3574 127.925 27.4328 127.925 31.1199C127.925 34.8069 130.769 37.3052 134.956 37.3052C137.645 37.3052 140.373 36.2687 141.564 33.9637V36.8824ZM127.618 36.8824L120.858 26.2803C123.815 24.0913 125.622 20.7861 125.852 16.3694H121.049C120.664 21.1726 117.246 23.898 112.79 23.898V9.37464H107.566V36.8799H112.79V28.6578C114.02 28.6578 115.441 28.5032 116.248 28.235L121.703 36.8775H127.62L127.618 36.8824ZM89.2787 24.5891C89.5083 21.9772 91.5064 20.2086 94.2729 20.2086C97.1916 20.2086 99.1897 21.9748 99.4217 24.5891H89.2787ZM94.2729 37.3438C99.3444 37.3438 102.802 35.1935 104.223 31.1199L99.2284 30.3129C98.3827 32.3497 96.5006 33.0407 94.2729 33.0407C91.5451 33.0407 89.5083 31.2358 89.2787 28.6602H104.568C104.645 28.1988 104.723 27.5077 104.723 26.6234C104.723 20.3222 100.651 15.9055 94.2729 15.9055C87.8943 15.9055 83.9777 20.3246 83.9777 26.6234C83.9777 32.9223 88.2036 37.3414 94.2729 37.3414V37.3438ZM64.3853 31.9631V25.5869H72.2232C74.4509 25.5869 76.0649 26.6234 76.0649 28.7762C76.0649 30.929 74.4509 31.9655 72.2232 31.9655H64.3853V31.9631ZM75.5647 17.4808C75.5647 19.6311 74.0281 20.6701 71.8004 20.6701H64.3853V14.2939H71.7617C73.9894 14.2939 75.5647 15.3304 75.5647 17.4832V17.4808ZM58.8547 36.8824H72.5301C78.9836 36.8824 81.7501 33.3862 81.7501 29.2377C81.7501 25.7802 79.9839 23.7821 76.8332 23.0524V22.8978C79.2928 22.0521 81.1364 20.0153 81.1364 17.0193C81.1364 13.023 78.6018 9.37464 72.071 9.37464H58.8547V36.8799V36.8824Z" fill="#272727"/>
<g style="mix-blend-mode:multiply">
<path d="M0 8.91313C0 9.21998 0.154633 9.37461 0.461482 9.37461H32.6541C33.8839 9.37461 34.7295 9.75878 34.7295 10.834C34.7295 11.9091 33.8839 12.2933 32.6541 12.2933H0.461482C0.154633 12.2933 0 12.4479 0 12.7548V33.4997C0 33.8066 0.154633 33.9612 0.461482 33.9612H32.6541C33.8839 33.9612 34.7295 34.3454 34.7295 35.4206C34.7295 36.4957 33.8839 36.8799 32.6541 36.8799H0.461482C0.154633 36.8799 0 37.0345 0 37.3414V45.793C0 46.0999 0.154633 46.2545 0.461482 46.2545H32.2699C39.1849 46.2545 44.2564 42.2582 44.2564 35.4206C44.2564 28.5829 39.1849 24.5866 32.2699 24.5866H9.37461V21.6679H32.2699C39.1849 21.6679 44.2564 17.6716 44.2564 10.834C44.2564 3.99629 39.1849 0 32.2699 0H0.461482C0.154633 0 0 0.154633 0 0.461482V8.91313Z" fill="#01ADEF"/>
</g>
</svg>
