<svg width="110" height="56" viewBox="0 0 110 56" fill="none" xmlns="http://www.w3.org/2000/svg">
<g clip-path="url(#clip0_2166_841)">
<path d="M1.23408 30.5305C1.08 30.2336 0.0253906 26.7549 0.0253906 27.089V37.7521C0.0253906 39.6169 1.49886 41.1922 3.37622 41.2441C5.32389 41.2976 6.92152 39.7461 6.92152 37.8234V37.525C6.92152 37.3126 6.80334 37.1181 6.61636 37.0142C4.10323 35.6156 2.59835 33.1644 1.23408 30.5305Z" fill="#003B4A"/>
<path d="M6.92149 14.3051V3.42224C6.92149 1.53221 5.37921 0 3.47492 0C1.57063 0 0.0268555 1.53221 0.0268555 3.42224V25.3914C0.31407 20.8111 2.90199 16.6242 6.92298 14.3051H6.92149Z" fill="#ED1C24"/>
<path d="M13.9222 19.3029C17.7876 19.3029 20.9215 22.4134 20.9215 26.2498C20.9215 28.8095 19.5259 31.0439 17.451 32.2495C21.659 29.9943 23.9448 25.1215 22.6822 20.3244C21.4885 15.7886 17.5543 12.6084 13.0247 12.4629C12.1555 12.5193 11.2789 12.6574 10.4053 12.8845C9.15474 13.2082 7.98943 13.6922 6.92285 14.3069V26.2513C6.92285 22.4148 10.0568 19.3044 13.9222 19.3044V19.3029Z" fill="url(#paint0_radial_2166_841)"/>
<path d="M27.3885 22.7596C25.6742 16.2447 19.55 12.0371 13.0233 12.4632C17.5529 12.6087 21.4872 15.7875 22.6809 20.3247C23.9434 25.1218 21.6592 29.9961 17.4497 32.2498C16.413 32.8511 15.2088 33.1986 13.9209 33.1986C10.0554 33.1986 6.92151 30.0881 6.92151 26.2516V14.3057C2.90201 16.6248 0.312598 20.8117 0.0268794 25.392C-0.062875 26.8188 0.0702607 28.2842 0.454709 29.7422C2.39789 37.1241 10.0016 41.5456 17.4392 39.6169C24.8769 37.6883 29.3317 30.1416 27.3885 22.7596Z" fill="url(#paint1_radial_2166_841)"/>
<path d="M51.3845 25.5606C51.3845 23.9571 51.1527 22.4947 50.6889 21.1733C50.2252 19.8519 49.5446 18.7235 48.647 17.7882C47.7495 16.8528 46.6575 16.1253 45.371 15.6056C44.0845 15.086 42.6185 14.8262 40.973 14.8262C39.537 14.8262 38.1757 15.0489 36.8892 15.4943C35.6027 15.9397 34.4658 16.5781 33.4785 17.4096C32.4912 18.241 31.6984 19.2357 31.1 20.3938C30.5017 21.5519 30.1726 22.8436 30.1127 24.2689C30.0828 24.5955 30.0679 24.937 30.0679 25.2933V26.8968C30.0679 30.6679 31.0402 33.5186 32.9849 35.4487C34.8383 37.2882 37.507 38.2488 40.9895 38.3349C41.0089 38.3349 41.3171 38.3409 41.6626 38.3379C45.012 38.2785 47.2843 37.6772 49.3755 35.1503C50.1399 34.2268 50.0038 32.8623 49.0734 32.1051C48.1429 31.3465 46.7682 31.4816 46.0053 32.405C45.1167 33.48 44.4286 33.958 41.5893 34.01C41.4218 34.013 41.1675 34.0159 40.6559 33.9833C39.8346 33.9224 39.1166 33.7873 38.5063 33.578C37.6387 33.281 36.9431 32.8727 36.4195 32.3531C35.8959 31.8334 35.5219 31.2099 35.2976 30.4824C35.0732 29.7549 34.961 28.9605 34.961 28.0994H51.386V25.5606H51.3845ZM34.9595 23.9571C34.9595 23.1257 35.1315 22.4056 35.4756 21.7968C35.8196 21.1881 36.2759 20.6833 36.8443 20.2825C37.4128 19.8816 38.056 19.5921 38.774 19.4139C39.4921 19.2357 40.2251 19.1467 40.973 19.1467C41.7808 19.1467 42.5213 19.2654 43.1945 19.503C43.8676 19.7405 44.451 20.0672 44.9447 20.4829C45.4383 20.8986 45.8198 21.4034 46.089 21.9973C46.3583 22.5912 46.4929 23.2444 46.4929 23.9571H34.9595Z" fill="#003B4A"/>
<path d="M61.736 34.0235C59.8811 34.0235 58.9536 33.1327 58.9536 31.3511V17.1544V8.696C58.9536 7.3568 57.8586 6.27148 56.5078 6.27148C55.157 6.27148 54.062 7.3568 54.062 8.696V11.4501V32.8209C54.062 33.6227 54.2041 34.365 54.4883 35.048C54.7726 35.7309 55.1765 36.3174 55.7 36.8074C56.2236 37.2973 56.8369 37.6759 57.54 37.9432C58.2431 38.2104 59.0135 38.344 59.8512 38.344C60.3598 38.344 60.9731 38.2921 61.6911 38.1881C62.4092 38.0842 63.0075 37.958 63.4862 37.8095V34.0235H61.736Z" fill="#003B4A"/>
<path d="M84.6835 16.4297C83.3671 15.8655 81.9385 15.4572 80.3977 15.2048C78.8569 14.9524 77.3685 14.8262 75.9324 14.8262C72.1926 14.8262 69.3429 15.717 67.3833 17.4986C65.4237 19.2803 64.4438 22.0418 64.4438 25.7833V28.0994C64.4438 31.0985 65.2516 33.4666 66.8672 35.2037C68.4828 36.9408 70.8314 37.8094 73.9129 37.8094C75.1396 37.8094 76.2166 37.5273 77.1441 36.9631C78.0716 36.3989 78.9541 35.7011 79.7919 34.8697V36.5622C79.7919 36.5622 79.7919 36.5711 79.7919 36.5771C79.7948 36.5771 79.7963 36.5741 79.7978 36.5726C79.7814 39.3327 79.4837 40.0721 78.082 41.0549C77.0887 41.7512 72.7102 43.0548 68.1298 40.853C66.9151 40.2695 65.4551 40.7728 64.8672 41.9784C64.2793 43.1825 64.7864 44.6331 66.0011 45.2165C68.5501 46.4414 71.162 46.915 73.521 46.915C76.6983 46.915 79.4179 46.0554 80.9018 45.0146C84.3992 42.5604 84.6835 39.6252 84.6835 36.3202V35.8362V16.4297ZM77.2114 32.4644C76.269 33.1474 75.1695 33.4889 73.9129 33.4889C72.9256 33.4889 72.1328 33.3627 71.5344 33.1103C70.9361 32.8579 70.4724 32.4867 70.1433 31.9968C69.8142 31.5068 69.5972 30.9129 69.4925 30.2151C69.3878 29.5173 69.3355 28.723 69.3355 27.8322V25.8724C69.3355 24.6252 69.4477 23.5785 69.672 22.7322C69.8964 21.8859 70.2704 21.1955 70.794 20.6611C71.3175 20.1266 72.0057 19.7405 72.8583 19.503C73.711 19.2654 74.7656 19.1467 76.0222 19.1467C76.7402 19.1467 77.376 19.1986 77.9295 19.3025C78.4829 19.4065 79.1037 19.5772 79.7919 19.8148V27.5323V29.9256C79.014 30.9352 78.1538 31.7815 77.2114 32.4644Z" fill="#003B4A"/>
<path d="M98.7805 38.3439C96.9854 38.3439 95.3998 38.0395 94.0235 37.4308C92.6473 36.822 91.4955 35.9906 90.568 34.9365C89.6405 33.8823 88.9375 32.6426 88.4588 31.2173C87.9801 29.792 87.7407 28.2479 87.7407 26.585V25.7387C87.7706 24.1649 88.0474 22.7099 88.571 21.3737C89.0945 20.0375 89.835 18.8868 90.7924 17.9218C91.7498 16.9567 92.9016 16.1995 94.2479 15.6502C95.5942 15.1008 97.1051 14.8262 98.7805 14.8262C100.366 14.8262 101.84 15.1008 103.201 15.6502C104.562 16.1995 105.751 16.9493 106.769 17.8995C107.786 18.8497 108.579 19.9929 109.147 21.3292C109.716 22.6654 110 24.1056 110 25.6497V26.585C110 28.2479 109.753 29.792 109.259 31.2173C108.766 32.6426 108.04 33.8823 107.083 34.9365C106.125 35.9906 104.951 36.822 103.56 37.4308C102.169 38.0395 100.576 38.3439 98.7805 38.3439ZM105.377 26.585V25.6942C105.377 23.7344 104.854 22.1458 103.807 20.9283C102.76 19.7108 101.099 19.1021 98.8254 19.1021C96.5516 19.1021 94.9061 19.7108 93.8889 20.9283C92.8717 22.1458 92.3631 23.7492 92.3631 25.7387V26.7632C92.3631 27.8322 92.4528 28.8046 92.6323 29.6806C92.8118 30.5566 93.141 31.3212 93.6196 31.9745C94.0983 32.6278 94.7565 33.1325 95.5942 33.4889C96.4319 33.8452 97.509 34.0234 98.8254 34.0234C100.142 34.0234 101.219 33.8378 102.057 33.4666C102.894 33.0954 103.56 32.5758 104.054 31.9077C104.547 31.2396 104.891 30.4527 105.086 29.547C105.28 28.6413 105.377 27.654 105.377 26.585Z" fill="#003B4A"/>
<path d="M6.96484 55.802V55.8584H5.81599C5.75914 55.701 5.7008 55.5585 5.67238 55.4026C5.08299 55.7441 4.12112 56.0009 3.37317 56.0009C1.66335 56.0009 0.686523 55.1888 0.686523 53.6625C0.686523 52.2654 1.89372 51.3241 3.89076 51.3241C4.56691 51.3241 5.01119 51.3672 5.47043 51.4384V51.1252C5.47043 49.8988 4.78082 49.3435 3.63196 49.3435C2.89897 49.3435 2.13755 49.4712 1.3911 49.7429L1.03208 48.8447C1.98048 48.4735 2.84212 48.3027 3.71873 48.3027C4.81074 48.3027 5.48539 48.5878 5.95959 49.0436C6.44876 49.5291 6.63425 50.1839 6.63425 51.0257V53.5927C6.63425 54.292 6.70605 55.0893 6.96484 55.8035V55.802ZM3.51678 54.975C4.17797 54.975 4.90947 54.8176 5.47043 54.5043V52.3649C4.98277 52.2788 4.68059 52.2372 3.91918 52.2372C2.55341 52.2372 1.89372 52.7791 1.89372 53.6625C1.89372 54.5459 2.45319 54.975 3.51678 54.975Z" fill="#003B4A"/>
<path d="M11.0172 50.3259V55.8579H9.83838V48.4433H10.9154V49.3133C11.6335 48.8427 12.7689 48.43 13.6305 48.3008L13.8325 49.3416C12.9424 49.4841 11.8489 49.8404 11.0172 50.3259Z" fill="#003B4A"/>
<path d="M21.5767 55.802V55.8584H20.4278C20.371 55.701 20.3126 55.5585 20.2842 55.4026C19.6948 55.7441 18.7329 56.0009 17.985 56.0009C16.2752 56.0009 15.2983 55.1888 15.2983 53.6625C15.2983 52.2654 16.5055 51.3241 18.5026 51.3241C19.1787 51.3241 19.623 51.3672 20.0823 51.4384V51.1252C20.0823 49.8988 19.3926 49.3435 18.2438 49.3435C17.5108 49.3435 16.7494 49.4712 16.0029 49.7429L15.6439 48.8447C16.5923 48.4735 17.4539 48.3027 18.3305 48.3027C19.4226 48.3027 20.0972 48.5878 20.5714 49.0436C21.0606 49.5291 21.2461 50.1839 21.2461 51.0257V53.5927C21.2461 54.292 21.3179 55.0893 21.5767 55.8035V55.802ZM18.1286 54.975C18.7898 54.975 19.5213 54.8176 20.0823 54.5043V52.3649C19.5946 52.2788 19.2924 52.2372 18.531 52.2372C17.1652 52.2372 16.5055 52.7791 16.5055 53.6625C16.5055 54.5459 17.065 54.975 18.1286 54.975Z" fill="#003B4A"/>
<path d="M35.326 50.9242V55.8579H34.1472V51.0237C34.1472 49.9829 33.4576 49.3133 32.4089 49.3133C31.7627 49.3133 30.9863 49.5123 30.4687 49.8271V55.8579H29.3049V50.9525C29.3049 49.7974 28.7155 49.3133 27.6819 49.3133C27.0491 49.3133 26.2742 49.5271 25.628 49.9265V55.8579H24.4492V48.4433H25.5263V48.9704C26.1725 48.571 27.0925 48.3008 27.9825 48.3008C28.7155 48.3008 29.462 48.5576 30.008 49.0283C30.741 48.5725 31.7178 48.3008 32.7081 48.3008C33.5563 48.3008 34.231 48.5576 34.6618 48.9852C35.136 49.4559 35.323 50.0542 35.323 50.9242H35.326Z" fill="#003B4A"/>
<path d="M44.7648 52.5347H39.1327C39.2912 54.0892 40.3683 54.9592 41.8627 54.9592C42.6092 54.9592 43.4573 54.7885 44.132 54.5168L44.4342 55.4432C43.5725 55.7995 42.7528 55.9985 41.7475 55.9985C39.6069 55.9985 37.9404 54.6014 37.9404 52.1487C37.9404 49.6959 39.7505 48.2988 41.5171 48.2988C43.4424 48.2988 44.8066 49.6959 44.8066 51.8784C44.8066 52.0774 44.7917 52.4055 44.7633 52.5347H44.7648ZM39.1476 51.5652H43.6009C43.5576 50.125 42.6675 49.3262 41.5171 49.3262C40.2965 49.3262 39.3481 50.0671 39.1461 51.5652H39.1476Z" fill="#003B4A"/>
<path d="M52.1936 48.7714L51.863 49.6845C51.2018 49.4425 50.5555 49.3 49.7657 49.3C48.8173 49.3 48.2279 49.6712 48.2279 50.2547C48.2279 50.8381 48.5151 51.1959 49.851 51.5374C51.9198 52.0645 52.6663 52.7074 52.6663 53.8476C52.6663 55.1601 51.5309 56.0004 49.6206 56.0004C48.6722 56.0004 47.7103 55.8149 46.7754 55.5164L47.106 54.6033C47.9242 54.8602 48.8008 55.0027 49.6206 55.0027C50.8697 55.0027 51.5025 54.6033 51.5025 53.904C51.5025 53.3621 51.0283 52.9345 49.477 52.55C47.5951 52.0793 47.0626 51.3949 47.0626 50.3541C47.0626 49.1842 48.0978 48.3008 49.7642 48.3008C50.7126 48.3008 51.4307 48.4864 52.1921 48.7714H52.1936Z" fill="#003B4A"/>
</g>
<defs>
<radialGradient id="paint0_radial_2166_841" cx="0" cy="0" r="1" gradientUnits="userSpaceOnUse" gradientTransform="translate(22.7151 26.2988) scale(17.8327 17.6991)">
<stop offset="0.17" stop-color="#FDB913"/>
<stop offset="0.66" stop-color="#F37021"/>
</radialGradient>
<radialGradient id="paint1_radial_2166_841" cx="0" cy="0" r="1" gradientUnits="userSpaceOnUse" gradientTransform="translate(17.1191 18.9944) scale(17.3181 17.1884)">
<stop offset="0.41" stop-color="#962F34"/>
<stop offset="0.99" stop-color="#ED1C24"/>
</radialGradient>
<clipPath id="clip0_2166_841">
<rect width="110" height="56" fill="white"/>
</clipPath>
</defs>
</svg>
