<svg xmlns="http://www.w3.org/2000/svg" viewBox="0 0 828.11 356.68"><defs><style>.a{isolation:isolate;}.b{fill:#62b6b8;}.b,.c,.d,.e{mix-blend-mode:multiply;}.c{fill:#5bc1d3;}.d,.g{fill:#008d8d;}.e{fill:#00a1a2;}.f{mix-blend-mode:color-dodge;}</style></defs><title>boldrini-logo</title><g class="a"><path class="b" d="M90.08,267.15S-18.18,205.87,22.71,64.56C22.71,64.56,144.88,114.88,90.08,267.15Z" transform="translate(-4 -4.62)"/><path class="c" d="M8.67,361.3s-35.85-132,91.12-205C99.79,156.28,133.55,280.15,8.67,361.3Z" transform="translate(-4 -4.62)"/><path class="d" d="M113.7,197.81S79.32,75.14,258,4.62C258,4.62,265.57,217.91,113.7,197.81Z" transform="translate(-4 -4.62)"/><path class="e" d="M112.41,153.77s138.24,10.8,101.94,125.41C214.35,279.18,99.6,283.31,112.41,153.77Z" transform="translate(-4 -4.62)"/><g class="f"><path class="g" d="M336.95,240.74l-48.93,0L288,128l48.62,0c20,0,32.34,12,32.35,30.38a25.77,25.77,0,0,1-14.13,22.94C367,185.45,372,196,372,207.71,372.06,226.25,358.57,240.73,336.95,240.74Zm-35.14-65.5h35.27c8.45,0,18-4.56,18-17.08,0-12-7.32-17.07-18.53-17.07H301.79Zm35.28,13.14-35.28,0,0,39H337.6c12,0,20.64-7.33,20.62-19.53C358.22,193.9,349.61,188.38,337.09,188.38Z" transform="translate(-4 -4.62)"/><path class="g" d="M466.48,199.07c0,24-18.19,43.57-42.07,43.57-23.72,0-42.1-19.5-42.12-43.53,0-24.4,18.35-44.23,42.07-44.24C448.26,154.85,466.48,174.66,466.48,199.07Zm-13.81,0c0-17.4-12.69-31.53-28.27-31.53s-28.12,14.16-28.12,31.56c0,17.07,12.7,30.87,28.13,30.87C440,230,452.67,216.12,452.66,199.07Z" transform="translate(-4 -4.62)"/><path class="g" d="M493.84,240.64l-13.83,0L480,119.73h13.83Z" transform="translate(-4 -4.62)"/><path class="g" d="M593.66,240.62H580.33V227.13c-5.85,8.62-16.57,15.61-28.92,15.61-24,0-41.94-19.64-42-43.86s17.87-44,41.92-44.08c12,0,22.43,6.66,28.46,14.79l0-49.91h13.82Zm-42.28-73c-15.78,0-28.12,14-28.12,31.37,0,17.06,12.37,31.05,28.13,31,15.44,0,28.45-14,28.43-31C579.82,181.61,566.81,167.65,551.38,167.65Z" transform="translate(-4 -4.62)"/><path class="g" d="M660.45,169.56c-15.28-1.51-29.28,7-29.28,23.72l0,47.31H617.38l0-82.57h13.31v9.41c6.34-8.93,20.3-12.65,29.89-11.54Z" transform="translate(-4 -4.62)"/><path class="g" d="M792.5,240.53H778.85l0-50.9c0-12.84-7.16-22.26-20.5-22.26-12.65,0-21.93,9.45-21.93,22l0,51.23H722.6l0-83.73H735.9v9.09a30.85,30.85,0,0,1,24.38-11.2c20.49,0,32.18,14.62,32.18,35.42Z" transform="translate(-4 -4.62)"/><rect class="g" x="678.63" y="152.23" width="13.81" height="83.72"/><path class="g" d="M697.07,138.44c0,4.61-3.22,8.3-8.59,8.3a8,8,0,0,1-8.14-8.3,8.21,8.21,0,0,1,8.43-8.44A8.12,8.12,0,0,1,697.07,138.44Z" transform="translate(-4 -4.62)"/><polygon class="g" points="825.87 235.9 812.07 235.9 812.02 152.18 825.83 152.16 825.87 235.9"/><path class="g" d="M832.11,138.37c0,4.61-3.22,8.3-8.59,8.3a8,8,0,0,1-8.15-8.3,8.23,8.23,0,0,1,8.44-8.44A8.1,8.1,0,0,1,832.11,138.37Z" transform="translate(-4 -4.62)"/></g></g></svg>