<svg width="77" height="70" viewBox="0 0 77 70" fill="none" xmlns="http://www.w3.org/2000/svg">
<path fill-rule="evenodd" clip-rule="evenodd" d="M35.75 46.5881H40.2495L39.4217 47.4153C39.0556 47.782 38.5804 47.9769 38.0982 48H37.9018C37.4196 47.9769 36.9439 47.782 36.5778 47.4153L35.75 46.5881ZM40.9557 45.8824H35.0443L33.6324 44.4704H42.3676L40.9557 45.8824ZM43.0733 43.7642H32.9262L31.5142 42.3528H44.4853L43.0733 43.7642ZM45.1915 41.6471H30.808L29.3961 40.2352H46.6034L45.1915 41.6471ZM47.3091 39.5294H28.6904L27.2784 38.1175H48.721L47.3091 39.5294ZM29.9059 36.7056C30.3313 36.9673 30.7744 37.2023 31.2345 37.4118H26.5722L25.1603 35.9999H50.8392L50.1335 36.7056H29.9059ZM27.2378 34.5879C27.4773 34.8316 27.727 35.0666 27.9872 35.2942H24.4546L23.0427 33.8822H52.9568L52.2511 34.5879H27.2378ZM25.5471 32.4708C25.7013 32.7114 25.8635 32.947 26.0328 33.1765H22.3364L20.9245 31.7646H55.075L54.3688 32.4708H25.5471ZM24.4355 30.3527C24.537 30.5897 24.6445 30.8253 24.7585 31.0589H20.2183L18.8069 29.647H57.1926L56.4869 30.3527H24.4355ZM23.6926 28.235C23.7579 28.4721 23.8282 28.7077 23.9041 28.9412H18.1007L16.6887 27.5293H59.3108L57.8988 28.9412H34.975C34.7495 28.7765 34.5305 28.5906 34.3185 28.3817C34.2693 28.3335 34.221 28.2848 34.1743 28.235H23.6926ZM23.2551 26.1179C23.2883 26.3545 23.3265 26.59 23.3691 26.8236H15.9825L14.5811 25.4217L14.5711 25.4117H61.4284L61.4184 25.4217L60.0165 26.8236H33.1346C33.0105 26.5951 32.9015 26.3595 32.8081 26.1179H23.2551ZM23.0884 24.0003L23.0879 24.0274C23.0929 24.2549 23.1019 24.4809 23.115 24.706H14.121C14.0542 24.5251 14.0136 24.3368 14 24.1469V24.0003V23.8531C14.0136 23.6632 14.0542 23.4744 14.121 23.294H61.8784C61.9452 23.4744 61.9859 23.6627 62 23.8526V24.0003V24.1474C61.9859 24.3373 61.9452 24.5256 61.8784 24.706H32.4455C32.4133 24.4759 32.3922 24.2403 32.3827 24.0003H23.0884ZM23.2612 21.8821C23.2275 22.1162 23.1994 22.3517 23.1753 22.5883H14.5711L14.5811 22.5783L15.983 21.1764H60.0165L61.4184 22.5783L61.4284 22.5883H32.5474C32.6012 22.3472 32.6675 22.1117 32.7458 21.8821H23.2612ZM23.6997 19.765C23.6354 19.9985 23.5761 20.2336 23.5218 20.4707H16.6887L18.1007 19.0588H57.8988L59.3108 20.4707H33.434C33.5922 20.2276 33.7685 19.992 33.9619 19.765H23.6997ZM24.4365 17.6468C24.3376 17.8809 24.2436 18.116 24.1552 18.353H18.8069L20.2188 16.9411H55.7807L57.1926 18.353H35.7199C36.524 17.9402 37.4563 17.7056 38.5161 17.6468H24.4365ZM25.5305 15.5292C25.3858 15.7592 25.2477 15.9948 25.1156 16.2354H20.9245L22.3364 14.8235H53.663L54.3688 15.5292H25.5305ZM27.1835 13.4121C26.9645 13.6401 26.7546 13.8757 26.5531 14.1178H23.0427L24.4546 12.7058H51.5449L52.2511 13.4121H27.1835ZM29.7748 11.2939C29.4252 11.5184 29.0892 11.754 28.7667 12.0001H25.1603L26.5722 10.5882H49.4273L50.1335 11.2939H29.7748ZM37.7561 9.17677C35.9539 9.17677 34.3049 9.41184 32.8106 9.88249H27.2784L28.6904 8.47056H47.3091L48.0153 9.17677H37.7561ZM46.6034 7.76484H29.3961L30.808 6.35292H45.1915L46.6034 7.76484ZM44.4853 5.64721H31.5142L32.9262 4.23528H43.0733L44.4853 5.64721ZM42.3676 3.52957H33.6324L35.0443 2.11764H40.9557L42.3676 3.52957ZM37.9023 0H38.0972C38.5799 0.0231052 39.0556 0.217991 39.4217 0.584158L40.2495 1.41193H35.75L36.5778 0.584158C36.9439 0.217991 37.4196 0.0231052 37.9023 0Z" fill="#E5811E"/>
<path d="M70.8072 59.8697H76.606V58.0201H72.9174V52.2531H70.8072V59.8697ZM64.0015 59.8697H70.1816V58.0741H66.0905V56.8663H69.7463V55.202H66.0905V54.0482H70.1271V52.2531H64.0015V59.8697ZM57.1959 59.8697H63.3764V58.0741H59.2848V56.8663H62.9412V55.202H59.2848V54.0482H63.3224V52.2531H57.1959V59.8697ZM52.3272 59.8697H54.4383V54.1027H56.7227V52.2531H50.0423V54.1027H52.3272V59.8697ZM47.0343 60C48.8839 60 50.113 59.0749 50.113 57.5192C50.113 56.072 49.0253 55.5059 47.2736 55.1252C46.2178 54.8859 45.9573 54.7339 45.9573 54.3855C45.9573 54.0916 46.2072 53.874 46.7187 53.874C47.3938 53.874 48.1548 54.1355 48.8511 54.6248L49.9065 53.1342C49.0799 52.4702 48.0684 52.1223 46.7732 52.1223C44.9448 52.1223 43.8244 53.1448 43.8244 54.5597C43.8244 56.1482 45.0756 56.6052 46.697 56.9748C47.7311 57.2147 47.9811 57.3889 47.9811 57.704C47.9811 58.0524 47.6761 58.2483 47.1105 58.2483C46.2289 58.2483 45.3912 57.9327 44.6398 57.3344L43.4648 58.7381C44.401 59.5758 45.6851 60 47.0343 60ZM38.782 55.9084V54.081H40.1635C40.8714 54.081 41.3062 54.3855 41.3062 54.9838C41.3062 55.5605 40.8926 55.9084 40.1746 55.9084H38.782ZM36.6708 59.8697H38.782V57.5626H39.7065L41.2411 59.8697H43.6779L41.8611 57.2147C42.8079 56.8122 43.4275 56.0392 43.4275 54.8753C43.4275 54.1027 43.1992 53.5154 42.7534 53.0691C42.2413 52.5576 41.4365 52.2531 40.2726 52.2531H36.6708V59.8697ZM29.8656 59.8697H36.0456V58.0741H31.9546V56.8663H35.6109V55.202H31.9546V54.0482H35.9916V52.2531H29.8656V59.8697ZM25.106 56.0392V54.0265H26.0962C26.8581 54.0265 27.3146 54.3744 27.3146 55.0278C27.3146 55.6478 26.8581 56.0392 26.1068 56.0392H25.106ZM22.9948 59.8697H25.106V57.6934H26.1502C28.0432 57.6934 29.4258 56.7466 29.4258 54.951C29.4258 53.2433 28.1851 52.2531 26.2588 52.2531H22.9948V59.8697ZM18.2352 56.0392V54.0265H19.2249C19.9873 54.0265 20.4438 54.3744 20.4438 55.0278C20.4438 55.6478 19.9873 56.0392 19.2365 56.0392H18.2352ZM16.1245 59.8697H18.2352V57.6934H19.2799C21.1729 57.6934 22.555 56.7466 22.555 54.951C22.555 53.2433 21.3143 52.2531 19.3884 52.2531H16.1245V59.8697ZM11.3866 58.1175C10.2327 58.1175 9.43847 57.1602 9.43847 56.0614C9.43847 54.9404 10.211 54.0047 11.3643 54.0047C12.5287 54.0047 13.3225 54.9621 13.3225 56.0614C13.3225 57.1819 12.5505 58.1175 11.3866 58.1175ZM11.3643 60.0217C13.7144 60.0217 15.4776 58.2483 15.4776 56.0614C15.4776 53.8522 13.7361 52.1006 11.3866 52.1006C9.03552 52.1006 7.27325 53.874 7.27325 56.0614C7.27325 58.27 9.01431 60.0217 11.3643 60.0217ZM3.92798 60.0217C5.6145 60.0217 6.583 59.2925 7.30103 58.3029L5.71246 57.1708C5.25498 57.7262 4.7879 58.0958 3.99312 58.0958C2.92717 58.0958 2.17632 57.2036 2.17632 56.0614C2.17632 54.9298 2.92717 54.0265 3.99312 54.0265C4.72226 54.0265 5.23327 54.3638 5.66854 54.9081L7.21417 53.7109C6.53956 52.7752 5.57108 52.1006 4.01483 52.1006C1.70823 52.1006 0 53.8416 0 56.0614C0 58.3569 1.75166 60.0217 3.92798 60.0217Z" fill="black"/>
<path d="M70.5467 69.6397C71.7298 69.6397 72.5589 69.0121 72.5589 67.9577C72.5589 67.0084 71.9393 66.5818 70.7486 66.2919C69.6696 66.0344 69.4121 65.8415 69.4121 65.4068C69.4121 65.021 69.7504 64.7225 70.33 64.7225C70.8446 64.7225 71.3516 64.9245 71.8585 65.3027L72.3902 64.5539C71.8186 64.0954 71.1672 63.846 70.3462 63.846C69.2272 63.846 68.4229 64.5135 68.4229 65.479C68.4229 66.5338 69.0985 66.8873 70.2972 67.169C71.3435 67.419 71.5692 67.6361 71.5692 68.038C71.5692 68.4809 71.1824 68.7621 70.5714 68.7621C69.871 68.7621 69.3323 68.497 68.7935 68.03L68.1977 68.7384C68.8733 69.3418 69.6862 69.6397 70.5467 69.6397ZM63.232 68.747C62.1135 68.747 61.3167 67.8371 61.3167 66.7428C61.3167 65.6325 62.0979 64.7392 63.2163 64.7392C64.3348 64.7392 65.1311 65.6481 65.1311 66.7428C65.1311 67.8532 64.351 68.747 63.232 68.747ZM63.2163 69.6559C64.9458 69.6559 66.1693 68.3279 66.1693 66.7428C66.1693 65.1412 64.9625 63.8303 63.232 63.8303C61.5015 63.8303 60.2791 65.1578 60.2791 66.7428C60.2791 68.344 61.4859 69.6559 63.2163 69.6559ZM56.1587 69.6559C57.213 69.6559 57.8568 69.2696 58.4441 68.6576L57.8084 68.0143C57.3256 68.4647 56.8833 68.747 56.191 68.747C55.113 68.747 54.3323 67.8451 54.3323 66.7428C54.3323 65.6244 55.113 64.7392 56.191 64.7392C56.8348 64.7392 57.3181 65.021 57.7685 65.4391L58.4032 64.7069C57.8649 64.1919 57.2373 63.8303 56.1991 63.8303C54.4934 63.8303 53.2941 65.1412 53.2941 66.7428C53.2941 68.3763 54.5176 69.6559 56.1587 69.6559ZM49.8418 69.5589H50.832V63.9262H49.8418V69.5589ZM43.5976 69.5589H47.5483V68.6576H44.5873V63.9262H43.5976V69.5589ZM37.506 67.322L38.4719 65.0689L39.445 67.322H37.506ZM35.5508 69.5589H36.5642L37.1439 68.1991H39.807L40.3786 69.5589H41.4238L38.9461 63.8864H38.0291L35.5508 69.5589ZM30.9957 69.5589H31.994V64.8437H33.78V63.9262H29.2092V64.8437H30.9957V69.5589ZM23.0135 69.5589H27.2298V68.6738H24.0027V67.1609H26.8273V66.2763H24.0027V64.8114H27.1894V63.9262H23.0135V69.5589ZM14.8212 69.5589H15.7947V65.5355L17.5575 68.1749H17.5893L19.3683 65.5194V69.5589H20.3574V63.9262H19.3036L17.5893 66.5898L15.8755 63.9262H14.8212V69.5589ZM11.1199 69.5589H12.1091V63.9262H11.1199V69.5589ZM5.02018 68.6823V67.1372H6.58905C7.3697 67.1372 7.74791 67.419 7.74791 67.8936C7.74791 68.4162 7.33738 68.6823 6.66177 68.6823H5.02018ZM5.02018 66.3005V64.8033H6.44464C7.07986 64.8033 7.43383 65.077 7.43383 65.5194C7.43383 66.0511 7.00765 66.3005 6.37192 66.3005H5.02018ZM39.5444 62.4771L38.9602 63.4162H38.2341L38.6456 62.4771H39.5444ZM4.04614 69.5589H6.65368C7.90848 69.5589 8.73811 69.0202 8.73811 68.0143C8.73811 67.2342 8.2786 66.8554 7.61914 66.6302C8.03774 66.4126 8.42352 66.0511 8.42352 65.3749C8.42352 64.9801 8.29527 64.6751 8.04582 64.4251C7.72367 64.103 7.2167 63.9262 6.5729 63.9262H4.04614V69.5589Z" fill="black"/>
</svg>
