<?xml version="1.0" encoding="utf-8"?>
<!-- Generator: Adobe Illustrator 19.2.1, SVG Export Plug-In . SVG Version: 6.00 Build 0)  -->
<svg version="1.1" id="layer" xmlns="http://www.w3.org/2000/svg" xmlns:xlink="http://www.w3.org/1999/xlink" x="0px" y="0px"
	 viewBox="0 0 652 652" style="enable-background:new 0 0 652 652;" xml:space="preserve">
<style type="text/css">
	.st0{fill:#333333;}
</style>
<path class="st0" d="M457.1,360.7l0.8-10.4l1.9-41.1h-7.9c0.1-1.3,0.3-3.3,0.4-6.2c0.1-2.8,0.2-4.9,0.3-6.2h8.6v-2.5
	c0-4.5,0.2-8,0.6-10.3c0.4-2.4,1.1-4.3,2.1-5.9c1-1.5,2.5-2.8,4.4-4c1.9-1.1,3.9-1.9,6.2-2.3c2.2-0.4,4.5-0.6,6.9-0.6
	c4.8,0,9.9,0.7,15.3,2c0.1,4.7,0.4,8.8,0.7,12.1c-4.1-1.4-7.8-2.1-11.1-2.1c-1.3,0-2.5,0.2-3.6,0.5c-1.1,0.3-2,0.8-2.7,1.3
	c-0.7,0.5-1.3,1.3-1.7,2.2s-0.8,1.9-1,3.1c-0.2,1.2-0.3,2.6-0.3,4.1l0,2.3h16.2c-0.3,2.9-0.5,7-0.8,12.4h-15.2
	c-0.8,16.8-1.4,34-1.9,51.6c-3.8-0.1-6.9-0.1-9.2-0.1C463.8,360.6,460.8,360.7,457.1,360.7z"/>
<path class="st0" d="M28.7,374.1c9.5,3.1,17.8,4.7,24.7,4.7c2.7,0,5.2-0.3,7.5-1c2.4-0.7,4.4-1.6,6-2.8c1.6-1.2,2.9-2.9,3.7-5
	c0.9-2.1,1.5-4.6,1.8-7.4c0.3-2.8,0.5-7,0.7-12.7c-1.6,2.2-3.1,4-4.4,5.2c-1.3,1.2-2.9,2.4-4.7,3.4c-1.8,1-4,1.8-6.4,2.4
	c-2.5,0.6-5,0.9-7.7,0.9c-3.7,0-7.2-0.6-10.6-1.7c-3.3-1.2-6.3-3-8.9-5.5c-2.6-2.5-4.6-5.6-5.9-9.4c-1.4-3.8-2-7.7-2-11.8
	c0-5.9,1.1-11.4,3.3-16.6c2.2-5.2,5.5-9.5,9.8-12.9c4.3-3.4,8.9-5.7,13.8-7c4.9-1.3,10.3-1.9,16.3-1.9c3.3,0,7,0.2,11.2,0.6
	c4.2,0.4,9.7,1.2,16.6,2.4l-1.5,20l-1.3,25.1L90,365.8c-0.1,2.6-0.4,5-1,7.4c-0.5,2.4-1.3,4.5-2.4,6.4c-1.1,1.9-2.5,3.6-4.2,5.1
	c-1.7,1.5-3.6,2.7-5.7,3.6c-2.1,0.9-4.8,1.7-7.9,2.2c-3.1,0.6-6.5,0.9-10.1,0.9c-3.8,0-8.2-0.3-13.1-0.8c-4.9-0.5-10.3-1.5-16-2.8
	L28.7,374.1z M75,309.1c-3.7-0.8-7.1-1.1-10.2-1.1c-5.5,0-10,1-13.6,3c-3.6,2-6.4,4.9-8.3,8.8c-1.9,3.8-2.9,7.9-2.9,12.2
	c0,3.2,0.6,6.1,1.8,8.8c1.2,2.7,3,4.8,5.6,6.2c2.5,1.4,5.3,2.1,8.3,2.1c2.2,0,4.2-0.3,6.1-1c1.9-0.7,3.6-1.7,5.1-3.1
	c1.5-1.4,2.9-3.1,4-5.2c1.2-2.1,2-4.4,2.5-7c0.5-2.6,0.9-5.9,1.1-9.8C74.6,319.1,74.8,314.4,75,309.1z M99.4,360.7l1.8-30l0.5-17.5
	c0.1-3.6,0.1-7.2,0.1-10.8c0-0.6,0-2.6-0.1-6c3.9,0.1,6.8,0.1,8.7,0.1c2.2,0,5,0,8.6-0.1l-0.3,8.9c1.6-2.3,3-4,4.1-5.1
	c1.1-1.1,2.4-2.1,3.8-2.9c1.4-0.8,3-1.4,4.7-1.8c1.7-0.4,3.5-0.6,5.3-0.6c1.7,0,3.4,0.2,5.2,0.6c0,3.9,0.2,8.9,0.6,14.9
	c-2.5-0.7-4.8-1-6.8-1c-2.5,0-4.6,0.4-6.5,1.1c-1.9,0.7-3.6,1.9-5.1,3.4c-1.5,1.5-2.7,3.3-3.7,5.5c-0.8,1.8-1.4,4.1-1.8,6.9
	c-0.3,2.2-0.6,5.9-0.8,11.3c-0.2,5.3-0.3,10.5-0.3,15.7c0,2,0.1,4.5,0.2,7.5c-3.2-0.1-6.2-0.1-8.8-0.1
	C106.2,360.6,103.1,360.7,99.4,360.7z M148.3,310.5c0.6-3,1-5.2,1.1-6.4c0.1-1.2,0.4-3.1,0.8-5.6c5.7-1.3,10.8-2.3,15.2-2.8
	c4.4-0.5,8.6-0.8,12.7-0.8c4.6,0,8.9,0.5,12.8,1.6c3.9,1.1,6.9,2.8,9.1,5.2c2.2,2.4,3.3,5.8,3.3,10.2c0,2.4-0.3,8.5-1,18.4
	c-0.7,9.8-1.1,20-1.2,30.5c-3.2-0.1-6.2-0.1-8.9-0.1c-2.6,0-5.6,0-9.1,0.1c0.6-5.1,1-11,1.3-17.7l0.8-15.8c-1.6,1.1-2.8,1.8-3.7,2.2
	c-0.8,0.4-1.8,0.8-2.9,1.2c-1.1,0.4-2.9,0.9-5.6,1.6c-2.7,0.7-4.8,1.4-6.4,1.9c-1.6,0.5-3.1,1.2-4.3,1.9c-1.3,0.7-2.4,1.5-3.3,2.3
	c-0.9,0.9-1.5,1.8-1.9,2.7c-0.4,0.9-0.6,2-0.6,3.1c0,1.8,0.5,3.3,1.6,4.6c1,1.3,2.3,2.2,3.9,2.7c1.6,0.5,3.4,0.8,5.5,0.8
	c1.4,0,2.8-0.1,4.3-0.3c1.5-0.2,3.5-0.7,6.1-1.6c-0.9,2.4-1.9,6-3.1,10.8c-3,0.5-5.4,0.8-7.2,0.9c-1.8,0.1-3.4,0.2-4.9,0.2
	c-5.3,0-9.7-0.7-13.1-2.1c-3.4-1.4-5.9-3.7-7.6-6.8c-1.6-3.1-2.4-6.3-2.4-9.4c0-1.8,0.3-3.6,1-5.4c0.6-1.8,1.6-3.4,2.8-4.9
	c1.2-1.5,2.8-2.9,4.8-4.3c1.9-1.4,4.8-2.7,8.4-4c3.7-1.3,8.5-2.6,14.6-3.9c1.6-0.3,3.3-0.7,5-1.2c1.7-0.5,3.1-1,4.2-1.4
	c1-0.5,1.9-1.1,2.7-1.8c0.8-0.7,1.3-1.5,1.7-2.3c0.4-0.8,0.5-1.6,0.5-2.5c0-1.6-0.5-3-1.6-4.2c-1.1-1.1-2.5-1.9-4.2-2.4
	c-1.7-0.4-3.6-0.7-5.7-0.7C166.1,305,157.6,306.8,148.3,310.5z M208.8,360.7c1-9.6,1.8-20.3,2.4-32.3c0.7-11.9,1-22.6,1.1-32.1
	c3.9,0.1,7,0.1,9.3,0.1c2.7,0,5.7,0,8.8-0.1l-0.7,10.8c1.3-1.9,2.5-3.3,3.5-4.4c1-1.1,2.3-2.2,3.8-3.2c1.5-1.1,3.2-1.9,4.9-2.5
	c1.8-0.6,3.7-1.1,5.9-1.5c2.2-0.4,4.5-0.6,6.8-0.6c3.8,0,7.4,0.5,10.8,1.4c3.4,0.9,6.2,2.5,8.3,4.5c2.1,2.1,3.5,4.3,4.2,6.8
	c0.7,2.4,1,5,1,7.8c0,1.1-0.1,3-0.2,5.4l-1.3,27.6c-0.2,3.8-0.3,7.9-0.3,12.3c-3.3-0.1-6.2-0.1-8.6-0.1c-3.2,0-6.5,0-9.7,0.1
	c0.3-3.7,0.8-10.1,1.3-19.2c0.5-9.1,0.8-15.2,0.8-18.1c0-3.3-0.5-6-1.6-8c-1.1-2-2.7-3.6-4.9-4.6c-2.2-1.1-4.6-1.6-7.2-1.6
	c-2.5,0-4.9,0.5-7.1,1.5c-2.2,1-4.1,2.4-5.7,4.2c-1.7,1.9-3,4.2-3.9,7c-1,3-1.7,7.8-2.2,14.6c-0.4,6-0.8,14.1-1,24.2
	c-3.3-0.1-6.2-0.1-8.8-0.1C215.8,360.6,212.6,360.7,208.8,360.7z M336.4,346.1c-0.2,1.7-0.5,3.7-1,5.9c-0.4,2.2-0.9,4.9-1.3,8.2
	c-6,1.4-12,2.1-17.9,2.1c-3.4,0-6.7-0.3-9.9-0.9c-3.2-0.6-6.1-1.8-8.8-3.4c-2.7-1.6-5.1-3.8-7.2-6.4c-2.1-2.7-3.6-5.9-4.7-9.6
	c-1-3.8-1.6-7.7-1.6-11.7c0-5.3,0.9-10.4,2.6-15.3c1.7-4.9,4.2-8.9,7.5-12c3.3-3.1,7-5.2,11-6.3c4-1.1,8.5-1.7,13.5-1.7
	c2.7,0,5.6,0.2,8.5,0.5c2.9,0.3,6.4,1,10.3,1.9l1,13.9c-6.3-2.1-11.8-3.2-16.5-3.2c-2.9,0-5.6,0.5-8.1,1.5c-2.6,1-4.7,2.5-6.6,4.6
	c-1.8,2.1-3.1,4.5-3.9,7.2s-1.2,5.5-1.2,8.4c0,4,0.6,7.5,1.9,10.4c1.2,2.9,3.4,5.2,6.4,6.8c3,1.6,6.5,2.4,10.4,2.4
	c1.9,0,4.2-0.2,6.9-0.7C330.5,348,333.4,347.2,336.4,346.1z M377.5,294.9c4.9,0,9.5,0.7,14,2.2c4.5,1.5,8.2,3.6,11.3,6.5
	c3.1,2.8,5.4,6.3,7,10.4c1.6,4.1,2.3,8.4,2.3,13c0,4.8-0.8,9.4-2.5,13.9c-1.6,4.5-4,8.3-7.2,11.6c-3.1,3.3-7,5.7-11.7,7.3
	c-4.7,1.6-9.7,2.4-14.9,2.4c-4.9,0-9.6-0.7-14-2.2c-4.4-1.5-8.2-3.6-11.3-6.5c-3.1-2.9-5.5-6.5-7.1-10.6c-1.6-4.2-2.4-8.5-2.4-13.1
	c0-4.6,0.7-9.1,2.2-13.3c1.5-4.2,3.8-8,6.9-11.3c3.1-3.3,7.2-5.8,12.1-7.7C367.2,295.8,372.3,294.9,377.5,294.9z M377.5,307.9
	c-3.7,0-6.9,0.9-9.8,2.7c-2.9,1.8-5,4.5-6.4,8c-1.4,3.5-2.1,7.4-2.1,11.6c0,3.7,0.6,6.9,1.7,9.8c1.2,2.9,3.1,5.2,5.7,7
	c2.6,1.8,5.8,2.7,9.4,2.7c3.7,0,7-0.9,9.8-2.8c2.8-1.8,4.9-4.5,6.3-8.1c1.4-3.6,2.1-7.5,2.1-11.8c0-3.5-0.5-6.7-1.6-9.6
	c-1.1-2.9-2.9-5.2-5.5-6.9C384.4,308.8,381.2,307.9,377.5,307.9z M418.9,360.7l0.8-10.4l1.9-41.1h-7.9c0.1-1.3,0.3-3.3,0.4-6.2
	c0.1-2.8,0.2-4.9,0.3-6.2h8.6l0-2.5c0-4.5,0.2-8,0.6-10.3c0.4-2.4,1.1-4.3,2.1-5.9c1-1.5,2.5-2.8,4.4-4c1.9-1.1,3.9-1.9,6.2-2.3
	c2.2-0.4,4.5-0.6,6.9-0.6c4.8,0,9.9,0.7,15.3,2c0.1,4.7,0.4,8.8,0.7,12.1c-4.1-1.4-7.8-2.1-11.1-2.1c-1.3,0-2.5,0.2-3.6,0.5
	c-1.1,0.3-2,0.8-2.7,1.3c-0.7,0.5-1.3,1.3-1.7,2.2c-0.5,0.9-0.8,1.9-1,3.1c-0.2,1.2-0.3,2.6-0.3,4.1l0,2.3H455
	c-0.3,2.9-0.5,7-0.8,12.4H439c-0.8,16.8-1.4,34-1.9,51.6c-3.8-0.1-6.9-0.1-9.2-0.1C425.6,360.6,422.6,360.7,418.9,360.7z
	 M550.4,346.4c-0.6,2.5-1.3,7-2.3,13.4c-4.6,1-8.4,1.6-11.5,2c-3.1,0.3-6.3,0.5-9.4,0.5c-5.5,0-10.5-0.5-14.9-1.6
	c-4.4-1.1-8.2-3.1-11.5-6c-3.3-2.9-5.7-6.5-7.3-10.8c-1.6-4.3-2.3-8.7-2.3-13.4c0-5.2,0.9-10.2,2.7-15.1c1.8-4.9,4.4-8.8,7.6-11.9
	c3.3-3.1,7-5.3,11.2-6.6c4.2-1.3,8.6-1.9,13.1-1.9c4.3,0,8.4,0.5,12.3,1.6c3.9,1.1,7.2,2.8,9.8,5.3c2.6,2.4,4.7,5.4,6.1,8.8
	c1.4,3.4,2.1,7.3,2.1,11.5c0,2-0.2,4-0.6,6.1l-46.5,0.1c-0.1,1.6-0.1,2.8-0.1,3.7c0,2.8,0.5,5.4,1.5,7.8c1,2.4,2.4,4.4,4.2,6
	c1.9,1.6,4.1,2.9,6.7,3.6c2.6,0.8,5.1,1.2,7.6,1.2c2.9,0,6.1-0.3,9.5-0.9C541.7,349,545.7,347.9,550.4,346.4z M509.5,320.8l29.7,0.1
	c0-2-0.1-3.5-0.2-4.5c-0.1-1-0.4-2.1-0.9-3.3c-0.4-1.2-1-2.3-1.8-3.3c-0.8-0.9-1.6-1.7-2.7-2.4s-2.2-1.1-3.5-1.5
	c-1.3-0.3-2.8-0.5-4.3-0.5c-1.8,0-3.5,0.3-5.2,0.8c-1.7,0.5-3.2,1.3-4.6,2.4c-1.4,1.1-2.5,2.2-3.4,3.5c-0.9,1.3-1.5,2.6-1.9,3.7
	C510.3,317.2,509.9,318.8,509.5,320.8z M616.7,346.4c-0.6,2.5-1.3,7-2.3,13.4c-4.6,1-8.4,1.6-11.5,2c-3.1,0.3-6.3,0.5-9.4,0.5
	c-5.5,0-10.5-0.5-14.9-1.6c-4.4-1.1-8.2-3.1-11.5-6c-3.3-2.9-5.7-6.5-7.3-10.8c-1.6-4.3-2.3-8.7-2.3-13.4c0-5.2,0.9-10.2,2.7-15.1
	c1.8-4.9,4.4-8.8,7.6-11.9c3.3-3.1,7-5.3,11.2-6.6c4.2-1.3,8.6-1.9,13.1-1.9c4.3,0,8.4,0.5,12.3,1.6c3.9,1.1,7.2,2.8,9.8,5.3
	c2.6,2.4,4.7,5.4,6.1,8.8c1.4,3.4,2.1,7.3,2.1,11.5c0,2-0.2,4-0.6,6.1l-46.5,0.1c-0.1,1.6-0.1,2.8-0.1,3.7c0,2.8,0.5,5.4,1.5,7.8
	c1,2.4,2.4,4.4,4.2,6c1.9,1.6,4.1,2.9,6.7,3.6c2.6,0.8,5.1,1.2,7.6,1.2c2.9,0,6.1-0.3,9.5-0.9C608,349,612,347.9,616.7,346.4z
	 M575.8,320.8l29.7,0.1c0-2-0.1-3.5-0.2-4.5c-0.1-1-0.4-2.1-0.9-3.3c-0.4-1.2-1-2.3-1.8-3.3c-0.8-0.9-1.6-1.7-2.7-2.4
	s-2.2-1.1-3.5-1.5c-1.3-0.3-2.8-0.5-4.3-0.5c-1.8,0-3.5,0.3-5.2,0.8c-1.7,0.5-3.2,1.3-4.6,2.4c-1.4,1.1-2.5,2.2-3.4,3.5
	c-0.9,1.3-1.5,2.6-1.9,3.7C576.6,317.2,576.2,318.8,575.8,320.8z M400.7,368.9C383,391.3,353.4,406,320,406
	c-32.8,0-61.9-14.2-79.7-35.9c-0.5,0.1-12.2,1.6-12.3,1.7c19.1,24.6,51.5,40.7,88.3,40.7c38.7,0,72.6-17.9,91.2-44.6
	C407,368,401.7,368.9,400.7,368.9z M405.5,270.5c-19-25.3-51.8-42-89.3-42c-45.2,0-83.8,24.4-99.2,58.7c0,0,0,0.1,0,0.1
	c0,0,12.7-1.9,12.9-2c15.1-30.5,49.7-51.8,90-51.8c33.3,0,62.7,14.5,80.4,36.7C401.1,270.2,405.5,270.5,405.5,270.5z"/>
</svg>
