<svg id="Layer_1" data-name="Layer 1" xmlns="http://www.w3.org/2000/svg" viewBox="0 0 595.87 90.57"><defs><style>.cls-1,.cls-2{fill:#036;}.cls-2{fill-rule:evenodd;}</style></defs><path class="cls-1" d="M138.15,55.59c-13.19-3.44-34.63-4.92-65.32,2.08C51.21,62.62,28.21,74.38,28.21,74.38s14.51-38,52.44-41.31C112.24,30.31,132.44,43.94,138.15,55.59Zm.08.38c5.73,11.75,4.5,23.42-.66,27.81-.36.3,22.09-7.38,22.33-13.22C160,67.89,153.75,60.35,138.23,56Z" transform="translate(-28.13 -32.71)"/><path class="cls-2" d="M28.13,76.54v.25C44,86.23,80.26,95.47,126,92.51c46.16-3,70.29-13.74,70.29-13.74s-25,44.52-83.57,44.52c-55.63,0-80.23-33.46-84.53-46.5v-.25" transform="translate(-28.13 -32.71)"/><path class="cls-2" d="M326.27,82.81c-2.91,13.76,5.51,19.61,19.94,19.61s25.35-5.85,28.27-19.61S369,63.19,354.54,63.19,329.19,69,326.27,82.81m12.4,0c1.51-7.16,6.65-11.18,14.08-11.18s10.86,4,9.33,11.18S355.43,94,348,94,337.15,90,338.67,82.81Zm-35,16.73.71-3.38c-3,3.06-9.36,6.26-16.38,6.26-6.19,0-15.15-2.38-12.86-13.14l5-23.71c.37-1.69,3.66-2.47,6.94-2.47s5.24,1,5,2.47l-4.24,20.1c-1.07,5,1.06,7.49,6.58,7.49,6.46,0,10.91-3.61,12.34-10.35l3.66-17.24c.38-1.69,3.68-2.47,7-2.47s5.25,1,5,2.47l-7.21,34c-.39,1.69-3.27,2.47-6.55,2.47s-5.25-1-5-2.47m127.38,0,4.33-20.41c1-4.91-2.55-6.27-6-6.27-5,0-7.54,2.73-8.75,8.46l-3.87,18.22c-.35,1.69-3.65,2.47-6.93,2.47s-5.24-1-5-2.47l4.29-20.41c1-4.91-2.55-6.27-5.89-6.27-5.11,0-7.68,2.73-8.88,8.46l-3.87,18.22c-.36,1.69-3.65,2.47-6.93,2.47s-5.24-1-5-2.47l7.18-34c.33-1.69,3.62-2.47,6.9-2.47s4.89,1,4.67,2.47l-.91,4.3a18.84,18.84,0,0,1,14.28-6.27c6.94,0,10.17,2.72,11.13,6.88,4.26-4.36,7.74-6.88,14.41-6.88,7.35,0,13.83,3.13,11.8,12.73L443,99.54c-.4,1.69-3.69,2.47-7,2.47s-5.23-1-5-2.47m73.75,0,4.07-19.19c1.07-5-1.06-7.49-6.45-7.49-5.57,0-10.87,2.79-12.52,10.56l-3.42,16.12c-.38,1.69-3.67,2.47-6.94,2.47s-5.27-1-5-2.47l7.21-34c.39-1.69,3.67-2.47,6.95-2.47s4.86,1,4.63,2.47l-.92,4.3c3-3.07,9.37-6.27,16.38-6.27,6.2,0,15.15,2.39,12.86,13.14l-4.83,22.8c-.39,1.69-3.66,2.47-6.95,2.47s-5.26-1-5-2.47m114,0c-.38,1.69-3.68,2.47-7,2.47s-5.25-1-5-2.47l4.09-19.19c1.08-5-1.06-7.49-6.44-7.49-5.58,0-10.87,2.79-12.52,10.56L588.5,99.54c-.37,1.69-3.66,2.47-6.94,2.47s-5.24-1-5-2.47l7.18-34c.38-1.69,3.66-2.47,6.93-2.47s4.87,1,4.64,2.47l-.91,4.3c3-3.07,9.36-6.27,16.37-6.27,6.2,0,15.16,2.39,12.88,13.14l-4.85,22.8h0M570.57,91.6c-4.93,7.28-13.55,10.82-24.2,10.82-14.44,0-22.86-5.85-19.94-19.61s13.82-19.62,28.26-19.62c15.53,0,21.53,7.7,18.95,21a1.34,1.34,0,0,1-1.42,1.15c-.35,0-33.78,0-33.88,0-.14.44-.15.45-.15.46l-.06.18c-.76,3.61,1.66,8.92,9.83,8.92,4.44,0,7.45-1.82,10-3.33h-.06c2.31-2.31,6.06-2.79,9.34-2.79s4.34,1.23,3.37,2.79M539.64,78.92h22.74c.45-2.11-.77-8.24-9.55-8.24-9.46,0-13,7.22-13.16,8.11ZM453.08,99.54l7.4-34c.43-1.69,3.71-2.47,7-2.47s5.24,1,5,2.47l-7.42,34c-.39,1.69-3.67,2.47-6.95,2.47s-5.24-1-5-2.47h0m9.83-45.13c.92-1.76,4.6-2.58,8.1-2.58s5.42,1.09,4.81,2.67l-.72,2.63c-.81,1.82-4.57,2.67-8.12,2.67s-5.42-1.08-4.84-2.63l.77-2.76M257.61,67.67c-.56-4.5-5.45-5-9.88-5-5,0-8.78,2.27-9.42,5.29-.51,2.39,1.22,3.72,4.26,4.22l14.77,2.45c7.9,1.32,13.47,4.41,11.73,12.6-1.77,8.37-8.87,15.1-26.54,15.1-10.44,0-23.59-1.26-22.32-13.54.45-2,2.59-2.68,6.39-2.68s7.75,1,7.48,2.68c.28,4.51,5.49,5.36,10.18,5.36,5.73,0,10-1.7,10.82-5.61.74-3.46-1.84-4.4-6.52-5.16l-10.78-1.7c-7.54-1.19-14.6-3.52-12.65-12.71,2.12-10,11.17-14.1,25.26-14.1,8.88,0,21.57,1.44,20.91,12.81,0,1.71-1.52,2.52-5,2.52-3.68,0-8.16-.66-8.69-2.52" transform="translate(-28.13 -32.71)"/></svg>